<svg width="17" height="36" fill="none" xmlns="http://www.w3.org/2000/svg"><g clip-path="url(#clip0)"><path d="M16.619 31.09v3.274c0 .443-.165.826-.494 1.15a1.61 1.61 0 01-1.168.486H1.662c-.45 0-.84-.162-1.169-.486A1.56 1.56 0 010 34.364V31.09c0-.443.164-.827.493-1.15a1.61 1.61 0 011.169-.486h1.662v-9.819H1.662c-.45 0-.84-.162-1.169-.485A1.56 1.56 0 010 18v-3.273c0-.443.164-.826.493-1.15a1.61 1.61 0 011.169-.486h9.971c.45 0 .84.162 1.169.486.329.324.493.707.493 1.15v14.727h1.662c.45 0 .84.162 1.168.486.33.324.494.708.494 1.15zM13.295 1.637v4.91c0 .443-.164.826-.493 1.15a1.61 1.61 0 01-1.169.486H4.986c-.45 0-.84-.162-1.169-.486a1.56 1.56 0 01-.493-1.15v-4.91c0-.443.164-.826.493-1.15A1.61 1.61 0 014.986 0h6.647c.45 0 .84.162 1.169.486.329.324.493.707.493 1.15z" fill="#fff"/></g><defs><clipPath id="clip0"><path fill="#fff" d="M0 0h16.621v36H0z"/></clipPath></defs></svg>