<svg width="37" height="36" fill="none" xmlns="http://www.w3.org/2000/svg"><path d="M14.148 21.002c1.48 0 2.678 1.175 2.678 2.625v5.25a2.6 2.6 0 01-.784 1.856 2.705 2.705 0 01-1.894.768h-8.41c-.71 0-1.39-.276-1.893-.768a2.6 2.6 0 01-.784-1.857v-5.25c0-1.449 1.2-2.625 2.677-2.625h8.41zm16.839 0c1.478 0 2.678 1.175 2.678 2.625v5.25a2.6 2.6 0 01-.785 1.856 2.706 2.706 0 01-1.893.768h-8.41c-.71 0-1.392-.276-1.894-.768a2.6 2.6 0 01-.784-1.857v-5.25c0-1.449 1.198-2.625 2.678-2.625h8.41zm0-16.508c1.478 0 2.678 1.176 2.678 2.625v8.256a2.6 2.6 0 01-.785 1.856 2.706 2.706 0 01-1.893.769H5.738c-.71 0-1.39-.276-1.893-.769a2.6 2.6 0 01-.784-1.856V7.119c0-.659.252-1.293.708-1.778a2.699 2.699 0 011.749-.838l.22-.009h25.249z" fill="#fff"/></svg>