<svg width="37" height="36" fill="none" xmlns="http://www.w3.org/2000/svg"><path d="M35.5 18.006a16.412 16.412 0 00-2.06-7.963 16.86 16.86 0 00-5.691-6.041 17.442 17.442 0 00-16.234-1.297 17.042 17.042 0 00-6.62 5.057 16.523 16.523 0 00-3.355 7.53 16.353 16.353 0 00.721 8.183 16.684 16.684 0 004.622 6.86.992.992 0 00.197.172 17.284 17.284 0 0011.328 4.207c4.176 0 8.206-1.497 11.328-4.208a.988.988 0 00.196-.171 16.686 16.686 0 004.116-5.59 16.349 16.349 0 001.452-6.74zm-32.174 0a14.479 14.479 0 011.75-6.904 14.862 14.862 0 014.852-5.3 15.298 15.298 0 016.826-2.462 15.4 15.4 0 017.211.949 15.077 15.077 0 015.918 4.138 14.618 14.618 0 013.246 6.365c.535 2.349.474 4.79-.179 7.11a14.659 14.659 0 01-3.564 6.2 12.96 12.96 0 00-6.703-5.14 7.563 7.563 0 002.98-3.726 7.376 7.376 0 00.123-4.728 7.54 7.54 0 00-2.784-3.868 7.827 7.827 0 00-4.594-1.484c-1.655 0-3.265.52-4.594 1.484a7.54 7.54 0 00-2.784 3.868 7.376 7.376 0 00.122 4.728 7.564 7.564 0 002.98 3.726 12.959 12.959 0 00-6.703 5.14c-2.637-2.729-4.106-6.342-4.103-10.096zm9.384-1.31c0-1.103.334-2.18.96-3.095a5.672 5.672 0 012.557-2.052 5.819 5.819 0 013.292-.316 5.74 5.74 0 012.918 1.524 5.532 5.532 0 011.559 2.851c.22 1.08.107 2.2-.324 3.218a5.6 5.6 0 01-2.099 2.5 5.792 5.792 0 01-7.192-.695 5.513 5.513 0 01-1.67-3.936zM8.93 29.464a10.953 10.953 0 014.035-3.836 11.262 11.262 0 015.443-1.399c1.907 0 3.782.482 5.442 1.4a10.955 10.955 0 014.035 3.835 15.265 15.265 0 01-9.477 3.284 15.27 15.27 0 01-9.478-3.284z" fill="#3A3A3A"/></svg>