<svg width="259" height="78" fill="none" xmlns="http://www.w3.org/2000/svg"><path d="M69.824 17.2v26.944c0 6.059-1.515 10.645-4.544 13.76-2.987 3.072-7.275 4.608-12.864 4.608-3.285 0-6.187-.576-8.704-1.728-2.475-1.195-4.373-2.816-5.696-4.864-1.365 2.048-3.264 3.67-5.696 4.864-2.432 1.152-5.312 1.728-8.64 1.728-5.59 0-9.877-1.536-12.864-4.608-2.987-3.115-4.48-7.701-4.48-13.76V17.2h6.4v26.752c0 8.576 3.648 12.864 10.944 12.864 3.541 0 6.293-1.045 8.256-3.136 1.963-2.09 2.944-5.333 2.944-9.728V17.2h6.4v26.752c0 4.395.96 7.637 2.88 9.728 1.963 2.09 4.715 3.136 8.256 3.136 7.339 0 11.008-4.288 11.008-12.864V17.2h6.4z" fill="#fff"/><path d="M63.72 17.2H82.6c4.736 0 8.939.939 12.608 2.816 3.67 1.877 6.507 4.523 8.512 7.936 2.048 3.37 3.072 7.253 3.072 11.648s-1.024 8.299-3.072 11.712c-2.005 3.37-4.843 5.995-8.512 7.872C91.538 61.061 87.336 62 82.6 62H63.72V17.2zm18.496 39.232c3.627 0 6.805-.704 9.536-2.112 2.773-1.408 4.907-3.37 6.4-5.888 1.493-2.56 2.24-5.504 2.24-8.832 0-3.328-.747-6.25-2.24-8.768-1.493-2.56-3.627-4.544-6.4-5.952-2.73-1.408-5.91-2.112-9.536-2.112H70.12v33.664h12.096zm51.467-28.672c3.285 0 6.229.725 8.832 2.176a15.432 15.432 0 016.08 6.08c1.493 2.603 2.24 5.61 2.24 9.024 0 3.413-.747 6.443-2.24 9.088a15.432 15.432 0 01-6.08 6.08c-2.603 1.45-5.547 2.176-8.832 2.176-2.517 0-4.821-.49-6.912-1.472a13.3 13.3 0 01-5.184-4.288V62h-5.888V14.512h6.144V33.2a12.779 12.779 0 015.12-4.032c2.048-.939 4.288-1.408 6.72-1.408zm-.512 29.248c2.176 0 4.117-.49 5.824-1.472a10.83 10.83 0 004.096-4.224c1.024-1.835 1.536-3.925 1.536-6.272 0-2.347-.512-4.416-1.536-6.208-.981-1.835-2.347-3.243-4.096-4.224-1.707-.981-3.648-1.472-5.824-1.472-2.133 0-4.075.49-5.824 1.472-1.749.981-3.115 2.39-4.096 4.224-.981 1.792-1.472 3.861-1.472 6.208s.491 4.437 1.472 6.272a10.83 10.83 0 004.096 4.224c1.749.981 3.691 1.472 5.824 1.472zm36.457 5.376c-3.285 0-5.824-.896-7.616-2.688-1.792-1.835-2.688-4.395-2.688-7.68V14.512h6.144v36.992c0 1.835.427 3.243 1.28 4.224.896.981 2.219 1.472 3.968 1.472a7.183 7.183 0 003.008-.64l.32 5.056c-1.408.512-2.88.768-4.416.768zm24.162 0c-3.371 0-6.4-.747-9.088-2.24-2.688-1.493-4.8-3.541-6.336-6.144-1.494-2.645-2.24-5.632-2.24-8.96 0-3.328.746-6.293 2.24-8.896A15.957 15.957 0 01184.702 30c2.688-1.493 5.717-2.24 9.088-2.24 3.37 0 6.378.747 9.024 2.24 2.688 1.45 4.778 3.499 6.272 6.144 1.536 2.603 2.304 5.568 2.304 8.896 0 3.328-.768 6.315-2.304 8.96-1.494 2.603-3.584 4.65-6.272 6.144-2.646 1.493-5.654 2.24-9.024 2.24zm0-5.376c2.176 0 4.117-.49 5.824-1.472a10.837 10.837 0 004.096-4.224c.981-1.835 1.472-3.925 1.472-6.272 0-2.347-.491-4.416-1.472-6.208-.982-1.835-2.347-3.243-4.096-4.224-1.707-.981-3.648-1.472-5.824-1.472-2.176 0-4.139.49-5.888 1.472-1.707.981-3.072 2.39-4.096 4.224-.982 1.792-1.472 3.861-1.472 6.208s.49 4.437 1.472 6.272c1.024 1.792 2.389 3.2 4.096 4.224 1.749.981 3.712 1.472 5.888 1.472zm58.545-28.928v29.312c0 5.93-1.472 10.304-4.416 13.12-2.944 2.859-7.339 4.288-13.184 4.288-3.2 0-6.251-.448-9.152-1.344-2.902-.853-5.248-2.09-7.04-3.712l2.944-4.736c1.578 1.365 3.52 2.432 5.824 3.2a21.993 21.993 0 007.232 1.216c3.968 0 6.89-.939 8.768-2.816 1.92-1.877 2.88-4.736 2.88-8.576v-2.688c-1.451 1.75-3.243 3.072-5.376 3.968-2.091.853-4.374 1.28-6.848 1.28-3.243 0-6.187-.683-8.832-2.048-2.603-1.408-4.651-3.35-6.144-5.824-1.494-2.517-2.24-5.376-2.24-8.576s.746-6.037 2.24-8.512c1.493-2.517 3.541-4.459 6.144-5.824 2.645-1.365 5.589-2.048 8.832-2.048 2.56 0 4.928.47 7.104 1.408 2.218.939 4.032 2.325 5.44 4.16V28.08h5.824zm-17.664 27.136c2.218 0 4.202-.47 5.952-1.408 1.792-.939 3.178-2.24 4.16-3.904 1.024-1.707 1.536-3.627 1.536-5.76 0-3.285-1.088-5.93-3.264-7.936-2.176-2.048-4.971-3.072-8.384-3.072-3.456 0-6.272 1.024-8.448 3.072-2.176 2.005-3.264 4.65-3.264 7.936 0 2.133.49 4.053 1.472 5.76a10.77 10.77 0 004.16 3.904c1.792.939 3.818 1.408 6.08 1.408z" fill="#fff"/></svg>