<svg width="164" height="51" fill="none" xmlns="http://www.w3.org/2000/svg"><path d="M84.12 18.4c2.08 0 3.933.453 5.56 1.36a9.772 9.772 0 013.88 3.84c.933 1.653 1.4 3.56 1.4 5.72 0 2.16-.467 4.08-1.4 5.76a9.772 9.772 0 01-3.88 3.84c-1.627.907-3.48 1.36-5.56 1.36-1.467 0-2.813-.253-4.04-.76a7.767 7.767 0 01-3.04-2.28V40h-4.76V10.32h5v10.92a8.438 8.438 0 013-2.12c1.173-.48 2.453-.72 3.84-.72zM83.56 36c1.84 0 3.347-.613 4.52-1.84 1.2-1.227 1.8-2.84 1.8-4.84s-.6-3.613-1.8-4.84c-1.173-1.227-2.68-1.84-4.52-1.84-1.2 0-2.28.28-3.24.84-.96.533-1.72 1.307-2.28 2.32-.56 1.013-.84 2.187-.84 3.52 0 1.333.28 2.507.84 3.52.56 1.013 1.32 1.8 2.28 2.36.96.533 2.04.8 3.24.8zm23.182 4.28c-2.213 0-3.947-.6-5.2-1.8-1.227-1.227-1.84-2.947-1.84-5.16v-23h5v22.64c0 2.133 1 3.2 3 3.2.667 0 1.267-.133 1.8-.4l.24 4a8.544 8.544 0 01-3 .52zm15.607 0c-2.16 0-4.107-.467-5.84-1.4-1.734-.933-3.094-2.227-4.08-3.88-.96-1.68-1.44-3.573-1.44-5.68 0-2.107.48-3.987 1.44-5.64.986-1.653 2.346-2.947 4.08-3.88 1.733-.933 3.68-1.4 5.84-1.4 2.186 0 4.146.467 5.88 1.4 1.733.933 3.08 2.227 4.04 3.88.986 1.653 1.48 3.533 1.48 5.64 0 2.107-.494 4-1.48 5.68-.96 1.653-2.307 2.947-4.04 3.88-1.734.933-3.694 1.4-5.88 1.4zm0-4.28c1.84 0 3.36-.613 4.56-1.84 1.2-1.227 1.8-2.84 1.8-4.84s-.6-3.613-1.8-4.84c-1.2-1.227-2.72-1.84-4.56-1.84-1.84 0-3.36.613-4.56 1.84-1.174 1.227-1.76 2.84-1.76 4.84s.586 3.613 1.76 4.84c1.2 1.227 2.72 1.84 4.56 1.84zm37.381-17.36v18.12c0 7.52-3.84 11.28-11.52 11.28-2.053 0-4-.267-5.84-.8-1.84-.507-3.36-1.253-4.56-2.24l2.24-3.76c.933.773 2.107 1.387 3.52 1.84 1.44.48 2.893.72 4.36.72 2.347 0 4.067-.533 5.16-1.6 1.093-1.067 1.64-2.693 1.64-4.88V36.2a8.215 8.215 0 01-3.12 2.12c-1.227.48-2.573.72-4.04.72-2.027 0-3.867-.427-5.52-1.28a10.089 10.089 0 01-3.88-3.68c-.933-1.573-1.4-3.373-1.4-5.4s.467-3.813 1.4-5.36a9.797 9.797 0 013.88-3.64c1.653-.853 3.493-1.28 5.52-1.28 1.547 0 2.947.253 4.2.76a7.759 7.759 0 013.2 2.32v-2.84h4.76zm-11.4 16.16c1.893 0 3.44-.56 4.64-1.68 1.227-1.147 1.84-2.627 1.84-4.44 0-1.787-.613-3.24-1.84-4.36-1.2-1.12-2.747-1.68-4.64-1.68-1.92 0-3.493.56-4.72 1.68-1.2 1.12-1.8 2.573-1.8 4.36 0 1.813.6 3.293 1.8 4.44 1.227 1.12 2.8 1.68 4.72 1.68z" fill="#3A3A3A"/><rect width="69" height="51" rx="5" fill="#2A31E1"/><path d="M42.468 14.2v14.178c0 3.264-.839 5.746-2.516 7.446-1.655 1.677-4.035 2.516-7.14 2.516-1.677 0-3.173-.26-4.488-.782-1.292-.544-2.323-1.28-3.094-2.21-.793.93-1.836 1.666-3.128 2.21-1.27.521-2.743.782-4.42.782-3.105 0-5.497-.85-7.174-2.55-1.677-1.7-2.516-4.17-2.516-7.412V14.2h4.42v14.042c0 2.153.442 3.729 1.326 4.726.907.997 2.221 1.496 3.944 1.496 3.559 0 5.338-2.074 5.338-6.222V14.2h4.42v14.042c0 4.148 1.79 6.222 5.372 6.222 3.513 0 5.27-2.074 5.27-6.222V14.2h4.386zm-3.964 0h10.404c2.538 0 4.794.499 6.766 1.496 1.972.975 3.502 2.369 4.59 4.182 1.088 1.79 1.632 3.865 1.632 6.222s-.544 4.443-1.632 6.256c-1.088 1.79-2.618 3.185-4.59 4.182-1.972.975-4.227 1.462-6.766 1.462H38.504V14.2zm10.2 20.06c1.745 0 3.275-.329 4.59-.986 1.337-.68 2.357-1.632 3.06-2.856.725-1.247 1.088-2.686 1.088-4.318 0-1.632-.363-3.06-1.088-4.284-.703-1.247-1.723-2.199-3.06-2.856-1.315-.68-2.845-1.02-4.59-1.02h-5.78v16.32h5.78z" fill="#fff"/></svg>