<svg width="131" height="43" fill="none" xmlns="http://www.w3.org/2000/svg"><path d="M68.096 14.72c1.664 0 3.147.363 4.448 1.088a7.817 7.817 0 013.104 3.072c.747 1.323 1.12 2.848 1.12 4.576 0 1.728-.373 3.264-1.12 4.608a7.817 7.817 0 01-3.104 3.072c-1.301.725-2.784 1.088-4.448 1.088-1.173 0-2.25-.203-3.232-.608a6.212 6.212 0 01-2.432-1.824V32h-3.808V8.256h4v8.736a6.75 6.75 0 012.4-1.696c.939-.384 1.963-.576 3.072-.576zm-.448 14.08c1.472 0 2.677-.49 3.616-1.472.96-.981 1.44-2.272 1.44-3.872s-.48-2.89-1.44-3.872c-.939-.981-2.144-1.472-3.616-1.472-.96 0-1.824.224-2.592.672-.768.427-1.376 1.045-1.824 1.856-.448.81-.672 1.75-.672 2.816 0 1.067.224 2.005.672 2.816a4.854 4.854 0 001.824 1.888c.768.427 1.632.64 2.592.64zm18.546 3.424c-1.771 0-3.158-.48-4.16-1.44-.982-.981-1.473-2.357-1.473-4.128v-18.4h4v18.112c0 1.707.8 2.56 2.4 2.56.534 0 1.014-.107 1.44-.32l.193 3.2a6.839 6.839 0 01-2.4.416zm12.485 0c-1.728 0-3.285-.373-4.672-1.12A8.312 8.312 0 0190.743 28c-.768-1.344-1.152-2.859-1.152-4.544 0-1.685.384-3.19 1.152-4.512a8.312 8.312 0 013.264-3.104c1.387-.747 2.944-1.12 4.672-1.12 1.749 0 3.317.373 4.704 1.12 1.387.747 2.464 1.781 3.232 3.104.789 1.323 1.184 2.827 1.184 4.512 0 1.685-.395 3.2-1.184 4.544-.768 1.323-1.845 2.357-3.232 3.104-1.387.747-2.955 1.12-4.704 1.12zm0-3.424c1.472 0 2.688-.49 3.648-1.472.96-.981 1.44-2.272 1.44-3.872s-.48-2.89-1.44-3.872c-.96-.981-2.176-1.472-3.648-1.472s-2.688.49-3.648 1.472c-.939.981-1.408 2.272-1.408 3.872s.47 2.89 1.408 3.872c.96.981 2.176 1.472 3.648 1.472zm29.905-13.888v14.496c0 6.016-3.072 9.024-9.216 9.024a16.7 16.7 0 01-4.672-.64c-1.472-.405-2.688-1.003-3.648-1.792l1.792-3.008c.747.619 1.685 1.11 2.816 1.472 1.152.384 2.315.576 3.488.576 1.877 0 3.253-.427 4.128-1.28s1.312-2.155 1.312-3.904v-.896a6.58 6.58 0 01-2.496 1.696c-.981.384-2.059.576-3.232.576-1.621 0-3.093-.341-4.416-1.024a8.075 8.075 0 01-3.104-2.944c-.747-1.259-1.12-2.699-1.12-4.32 0-1.621.373-3.05 1.12-4.288a7.842 7.842 0 013.104-2.912c1.323-.683 2.795-1.024 4.416-1.024 1.237 0 2.357.203 3.36.608a6.21 6.21 0 012.56 1.856v-2.272h3.808zm-9.12 12.928c1.515 0 2.752-.448 3.712-1.344.981-.917 1.472-2.101 1.472-3.552 0-1.43-.491-2.592-1.472-3.488-.96-.896-2.197-1.344-3.712-1.344-1.536 0-2.795.448-3.776 1.344-.96.896-1.44 2.059-1.44 3.488 0 1.45.48 2.635 1.44 3.552.981.896 2.24 1.344 3.776 1.344z" fill="#3A3A3A"/><rect width="55" height="42" rx="5" fill="#2A31E1"/><path d="M33.652 11.8v10.842c0 2.496-.641 4.394-1.924 5.694-1.265 1.283-3.085 1.924-5.46 1.924-1.283 0-2.427-.2-3.432-.598-.988-.416-1.777-.98-2.366-1.69-.607.71-1.404 1.274-2.392 1.69-.97.399-2.097.598-3.38.598-2.375 0-4.203-.65-5.486-1.95-1.283-1.3-1.924-3.19-1.924-5.668V11.8h3.38v10.738c0 1.647.338 2.851 1.014 3.614.693.763 1.699 1.144 3.016 1.144 2.721 0 4.082-1.586 4.082-4.758V11.8h3.38v10.738c0 3.172 1.37 4.758 4.108 4.758 2.687 0 4.03-1.586 4.03-4.758V11.8h3.354zm-3.031 0h7.956c1.94 0 3.666.381 5.174 1.144 1.508.745 2.678 1.811 3.51 3.198.832 1.37 1.248 2.955 1.248 4.758s-.416 3.397-1.248 4.784c-.832 1.37-2.002 2.435-3.51 3.198-1.508.745-3.233 1.118-5.174 1.118H30.62V11.8zm7.8 15.34c1.334 0 2.504-.251 3.51-.754 1.022-.52 1.802-1.248 2.34-2.184.554-.953.832-2.054.832-3.302 0-1.248-.278-2.34-.832-3.276-.538-.953-1.318-1.681-2.34-2.184-1.006-.52-2.176-.78-3.51-.78H34v12.48h4.42z" fill="#fff"/></svg>