<svg width="25" height="24" fill="none" xmlns="http://www.w3.org/2000/svg"><g clip-path="url(#clip0)"><path d="M10.914 20.527c2.33 0 4.592-.763 6.427-2.166l5.77 5.64 1.855-1.814-5.769-5.64a10.057 10.057 0 002.217-6.284C21.414 4.605 16.704 0 10.914 0 5.125 0 .415 4.604.415 10.264c0 5.659 4.71 10.263 10.5 10.263zm0-17.961c4.343 0 7.875 3.452 7.875 7.698 0 4.245-3.532 7.697-7.875 7.697-4.342 0-7.874-3.452-7.874-7.697 0-4.246 3.532-7.698 7.874-7.698z" fill="#3A3A3A"/></g><defs><clipPath id="clip0"><path fill="#fff" transform="translate(.415)" d="M0 0h24.551v24H0z"/></clipPath></defs></svg>