<svg width="15" height="11" fill="none" xmlns="http://www.w3.org/2000/svg"><path fill-rule="evenodd" clip-rule="evenodd" d="M14.01 5.313S11.383.5 7.01.5c-4.375 0-7 4.813-7 4.813s2.625 4.812 7 4.812c4.374 0 7-4.813 7-4.813zm-12.974 0c.423.643.91 1.241 1.452 1.787C3.615 8.228 5.155 9.25 7.01 9.25c1.855 0 3.394-1.022 4.521-2.15a11.494 11.494 0 001.453-1.787 11.494 11.494 0 00-1.453-1.788c-1.127-1.128-2.667-2.15-4.521-2.15-1.855 0-3.395 1.022-4.522 2.15a11.492 11.492 0 00-1.453 1.788z" fill="#3A3A3A"/><path fill-rule="evenodd" clip-rule="evenodd" d="M7.01 3.125a2.187 2.187 0 100 4.375 2.187 2.187 0 000-4.375zM3.947 5.313a3.062 3.062 0 116.125 0 3.062 3.062 0 01-6.125 0z" fill="#3A3A3A"/></svg>