<svg width="32" height="32" fill="none" xmlns="http://www.w3.org/2000/svg"><g clip-path="url(#clip0)" fill="#fff"><path d="M8.592 19.785l13.784 2.928.577-2.785-13.784-2.95-.577 2.807zm-.305 3.643h14.088v2.836H8.287v-2.836zm2.113-10.32l12.763 6.035 1.182-2.592L11.576 10.5 10.4 13.108z"/><path d="M23.164 19.144l-.001-.001h-.002.003zM2.667 20.572V32h25.322V20.572h-2.817v8.57H5.484v-8.57H2.667zM13.937 6.75l10.812 9.165 1.795-2.2L15.732 4.55l-1.795 2.2zm15.396 4.7L20.931 0l-2.255 1.715 8.403 11.449 2.254-1.715z"/></g><defs><clipPath id="clip0"><path fill="#fff" d="M0 0h32v32H0z"/></clipPath></defs></svg>