<svg width="35" height="35" fill="none" xmlns="http://www.w3.org/2000/svg"><g clip-path="url(#clip0)"><path d="M34.226 8.647l.043.285c-.423-1.5-1.564-2.658-3.015-3.08l-.031-.007c-2.729-.74-13.708-.74-13.708-.74s-10.953-.015-13.709.74A4.439 4.439 0 00.77 8.902l-.008.03c-1.02 5.325-1.026 11.722.045 17.423l-.045-.289c.423 1.501 1.565 2.659 3.016 3.08l.03.008c2.726.742 13.709.742 13.709.742s10.95 0 13.708-.742a4.438 4.438 0 003.04-3.057l.007-.03c.464-2.477.729-5.326.729-8.237 0-.107 0-.215-.002-.323.002-.099.002-.217.002-.335a47.03 47.03 0 00-.774-8.525zM14.012 22.825V12.189l9.138 5.326-9.138 5.31z" fill="#fff"/></g><defs><clipPath id="clip0"><path fill="#fff" d="M0 0h35v35H0z"/></clipPath></defs></svg>