<svg width="30" height="30" fill="none" xmlns="http://www.w3.org/2000/svg"><path d="M15.233.833c-7.952 0-14.4 6.448-14.4 14.4 0 7.953 6.448 14.4 14.4 14.4 7.953 0 14.4-6.447 14.4-14.4 0-7.952-6.447-14.4-14.4-14.4zM20.602 21.2c-1.305 1.202-3.085 1.91-5.21 1.91a7.87 7.87 0 01-7.872-7.876 7.87 7.87 0 01.84-3.539 7.866 7.866 0 017.032-4.339c2.121 0 3.902.781 5.268 2.05l-2.256 2.26c-.817-.78-1.855-1.176-3.009-1.176-2.05 0-3.786 1.385-4.407 3.246a4.736 4.736 0 00-.247 1.498c0 .521.09 1.026.247 1.498.62 1.861 2.357 3.247 4.404 3.247 1.06 0 1.96-.28 2.665-.753a3.62 3.62 0 001.571-2.378h-4.236V13.8h7.415c.094.517.142 1.054.142 1.61 0 2.401-.858 4.416-2.347 5.789z" fill="#fff"/></svg>