<svg width="30" height="30" fill="none" xmlns="http://www.w3.org/2000/svg"><path d="M15.233.833c-7.952 0-14.4 6.448-14.4 14.4 0 7.953 6.448 14.4 14.4 14.4 7.953 0 14.4-6.447 14.4-14.4 0-7.952-6.447-14.4-14.4-14.4zm6.92 10.855c.01.151.01.308.01.463 0 4.718-3.593 10.154-10.16 10.154-2.025 0-3.902-.588-5.483-1.601.289.032.565.045.861.045a7.162 7.162 0 004.432-1.523 3.57 3.57 0 01-3.336-2.476c.55.08 1.045.08 1.61-.064a3.568 3.568 0 01-2.857-3.503v-.045c.472.266 1.028.43 1.61.453a3.571 3.571 0 01-1.59-2.97 3.5 3.5 0 01.485-1.8 10.134 10.134 0 007.36 3.732c-.504-2.427 1.309-4.391 3.488-4.391 1.028 0 1.954.43 2.607 1.125a7.051 7.051 0 002.266-.858 3.553 3.553 0 01-1.569 1.964 7.058 7.058 0 002.057-.556 7.482 7.482 0 01-1.79 1.851z" fill="#fff"/></svg>