<svg width="30" height="30" fill="none" xmlns="http://www.w3.org/2000/svg"><path d="M15 .6C7.047.6.6 7.047.6 15S7.047 29.4 15 29.4 29.4 22.953 29.4 15 22.953.6 15 .6zm5.538 16.246s1.274 1.258 1.587 1.841c.01.012.014.024.017.03.127.215.157.381.094.506-.105.207-.465.309-.588.318h-2.25c-.156 0-.483-.041-.879-.314-.304-.213-.604-.563-.897-.903-.436-.507-.814-.945-1.195-.945a.457.457 0 00-.143.022c-.288.093-.657.505-.657 1.6 0 .341-.27.538-.46.538h-1.03c-.352 0-2.18-.123-3.8-1.832-1.983-2.092-3.768-6.289-3.783-6.328-.113-.271.12-.417.373-.417H9.2c.303 0 .402.184.47.348.082.19.379.948.866 1.8.79 1.389 1.275 1.953 1.664 1.953a.45.45 0 00.208-.054c.507-.282.413-2.09.39-2.465 0-.07-.001-.808-.26-1.162-.187-.256-.503-.354-.695-.39a.825.825 0 01.298-.254c.348-.173.975-.199 1.598-.199h.346c.675.009.85.053 1.094.114.495.118.505.438.462 1.531-.014.311-.027.662-.027 1.076 0 .09-.005.186-.005.288-.015.556-.033 1.188.36 1.447.051.033.11.05.171.05.137 0 .548 0 1.66-1.91.344-.614.642-1.253.893-1.91.023-.04.089-.16.167-.206a.4.4 0 01.186-.043h2.671c.291 0 .49.043.528.155.066.179-.012.723-1.231 2.375l-.545.719c-1.105 1.449-1.105 1.522.07 2.621z" fill="#fff"/></svg>