<svg width="36" height="37" fill="none" xmlns="http://www.w3.org/2000/svg"><path d="M18.28 1.27C8.737 1.27 1 9.008 1 18.55c0 9.543 7.737 17.28 17.28 17.28 9.543 0 17.28-7.737 17.28-17.28 0-9.542-7.737-17.28-17.28-17.28zm6.441 24.44C23.155 27.151 21.02 28 18.47 28a9.443 9.443 0 01-9.446-9.45 9.45 9.45 0 011.007-4.246 9.44 9.44 0 018.439-5.207c2.546 0 4.683.937 6.322 2.46l-2.708 2.712c-.98-.937-2.225-1.412-3.61-1.412-2.461 0-4.544 1.663-5.288 3.896a5.683 5.683 0 00-.297 1.797c0 .625.108 1.23.297 1.798.744 2.233 2.827 3.896 5.284 3.896 1.273 0 2.353-.336 3.198-.903a4.344 4.344 0 001.886-2.854H18.47V16.83h8.898c.112.621.17 1.265.17 1.933 0 2.88-1.03 5.3-2.816 6.946z" fill="#2A31E1"/></svg>