<svg width="36" height="37" fill="none" xmlns="http://www.w3.org/2000/svg"><path d="M18.28 1.27C8.737 1.27 1 9.008 1 18.55c0 9.543 7.737 17.28 17.28 17.28 9.543 0 17.28-7.737 17.28-17.28 0-9.542-7.737-17.28-17.28-17.28zm8.304 13.026c.012.181.012.37.012.555 0 5.663-4.312 12.185-12.192 12.185a12.15 12.15 0 01-6.58-1.92c.346.038.678.053 1.033.053 2.006 0 3.85-.679 5.319-1.828a4.285 4.285 0 01-4.004-2.97c.66.096 1.254.096 1.933-.077a4.282 4.282 0 01-3.43-4.204v-.055c.568.32 1.235.517 1.933.544a4.286 4.286 0 01-1.91-3.564 4.2 4.2 0 01.583-2.16 12.16 12.16 0 008.833 4.479c-.605-2.913 1.57-5.27 4.185-5.27a4.28 4.28 0 013.128 1.35 8.464 8.464 0 002.72-1.03 4.264 4.264 0 01-1.883 2.357 8.47 8.47 0 002.469-.667 8.98 8.98 0 01-2.149 2.222z" fill="#2A31E1"/></svg>