<svg width="36" height="37" fill="none" xmlns="http://www.w3.org/2000/svg"><g clip-path="url(#clip0)"><path d="M18 .99C8.457.99.72 8.727.72 18.27c0 9.544 7.737 17.28 17.28 17.28 9.544 0 17.28-7.736 17.28-17.28C35.28 8.727 27.544.99 18 .99zm6.646 19.496s1.528 1.509 1.904 2.209c.011.014.016.029.02.036.153.257.189.457.113.606-.126.249-.558.371-.705.382h-2.7c-.187 0-.58-.049-1.055-.376-.365-.256-.725-.675-1.076-1.084-.524-.608-.978-1.134-1.435-1.134a.548.548 0 00-.171.027c-.346.112-.788.605-.788 1.919 0 .41-.324.646-.553.646h-1.237c-.42 0-2.615-.147-4.559-2.198-2.38-2.51-4.522-7.547-4.54-7.594-.135-.326.144-.5.449-.5h2.727c.363 0 .482.221.565.417.097.229.453 1.138 1.038 2.16.949 1.667 1.53 2.344 1.997 2.344a.54.54 0 00.25-.065c.608-.338.495-2.507.468-2.957 0-.085-.002-.97-.313-1.395-.224-.308-.603-.425-.834-.468a.99.99 0 01.358-.304c.418-.21 1.17-.24 1.917-.24h.416c.81.011 1.019.063 1.312.137.594.142.607.526.555 1.838-.016.372-.033.794-.033 1.29 0 .108-.005.224-.005.346-.018.668-.04 1.426.432 1.737.061.039.133.06.205.06.164 0 .657 0 1.993-2.292a17.48 17.48 0 001.07-2.293c.028-.047.107-.191.2-.247a.48.48 0 01.224-.052h3.206c.349 0 .588.052.633.187.08.214-.014.868-1.478 2.85l-.653.862c-1.327 1.739-1.327 1.827.083 3.146z" fill="#2A31E1"/></g><defs><clipPath id="clip0"><path fill="#fff" transform="translate(0 .27)" d="M0 0h36v36H0z"/></clipPath></defs></svg>